<svg id="svg" version="1.1" xmlns="http://www.w3.org/2000/svg" xmlns:xlink="http://www.w3.org/1999/xlink" width="400" height="154" viewBox="0, 0, 400,154"><g id="svgg"><path id="path0" d="M138.083 0.112 C 137.808 0.156,137.512 0.262,137.425 0.346 C 137.338 0.431,137.094 0.500,136.883 0.500 C 136.672 0.500,136.500 0.557,136.500 0.627 C 136.500 0.697,136.219 0.883,135.875 1.039 C 135.215 1.339,134.307 1.854,134.167 2.008 C 134.121 2.058,133.821 2.283,133.500 2.507 C 132.863 2.952,131.833 3.962,131.833 4.141 C 131.833 4.203,131.567 4.553,131.243 4.918 C 130.918 5.284,130.525 5.865,130.370 6.208 C 130.215 6.552,130.031 6.833,129.961 6.833 C 129.891 6.833,129.833 7.016,129.833 7.240 C 129.833 7.464,129.758 7.693,129.667 7.750 C 129.575 7.807,129.500 7.999,129.500 8.177 C 129.500 8.354,129.425 8.500,129.333 8.500 C 129.242 8.500,129.167 8.721,129.167 8.990 C 129.167 9.260,129.092 9.527,129.000 9.583 C 128.908 9.640,128.833 10.052,128.833 10.500 C 128.833 10.948,128.758 11.360,128.667 11.417 C 128.557 11.484,128.500 18.671,128.500 32.434 L 128.500 53.348 128.074 53.799 C 127.839 54.047,127.523 54.456,127.371 54.708 C 127.219 54.960,127.036 55.167,126.964 55.167 C 126.892 55.167,126.833 55.263,126.833 55.381 C 126.833 55.499,126.611 55.856,126.340 56.173 C 126.069 56.490,125.844 56.844,125.840 56.958 C 125.836 57.073,125.767 57.167,125.686 57.167 C 125.605 57.167,125.496 57.298,125.443 57.458 C 125.391 57.619,125.145 58.087,124.897 58.500 C 124.649 58.913,124.170 59.775,123.833 60.417 C 123.496 61.058,123.059 61.867,122.860 62.213 C 122.662 62.560,122.500 62.991,122.500 63.172 C 122.500 63.352,122.425 63.500,122.333 63.500 C 122.242 63.500,122.167 63.650,122.167 63.833 C 122.167 64.017,122.092 64.167,122.000 64.167 C 121.908 64.167,121.833 64.312,121.833 64.490 C 121.833 64.668,121.758 64.860,121.667 64.917 C 121.575 64.973,121.500 65.198,121.500 65.417 C 121.500 65.635,121.425 65.860,121.333 65.917 C 121.242 65.973,121.167 66.203,121.167 66.427 C 121.167 66.650,121.092 66.833,121.000 66.833 C 120.908 66.833,120.833 67.058,120.833 67.333 C 120.833 67.608,120.758 67.833,120.667 67.833 C 120.575 67.833,120.500 68.054,120.500 68.323 C 120.500 68.593,120.425 68.860,120.333 68.917 C 120.242 68.973,120.167 69.278,120.167 69.593 C 120.167 69.909,120.092 70.167,120.000 70.167 C 119.788 70.167,119.773 75.722,119.984 76.127 C 120.066 76.286,120.233 76.754,120.353 77.167 C 120.473 77.579,120.792 78.329,121.060 78.833 C 121.329 79.337,121.632 79.918,121.733 80.124 C 121.834 80.329,121.973 80.498,122.042 80.499 C 122.110 80.499,122.167 80.606,122.167 80.735 C 122.167 81.011,124.374 83.235,125.042 83.632 C 125.294 83.782,125.500 83.964,125.500 84.036 C 125.500 84.108,125.644 84.167,125.819 84.167 C 125.995 84.167,126.164 84.223,126.194 84.292 C 126.263 84.446,127.636 85.167,127.861 85.167 C 128.512 85.167,128.500 84.803,128.500 105.238 C 128.500 118.190,128.557 124.833,128.667 124.833 C 128.758 124.833,128.833 124.948,128.833 125.089 C 128.833 125.464,129.335 126.167,129.603 126.167 C 129.729 126.167,129.833 126.242,129.833 126.333 C 129.833 126.425,130.046 126.500,130.306 126.500 C 130.565 126.500,130.817 126.540,130.866 126.588 C 130.987 126.709,151.960 126.677,152.583 126.555 C 153.201 126.434,154.167 125.735,154.167 125.408 C 154.167 125.275,154.242 125.167,154.333 125.167 C 154.444 125.167,154.500 115.024,154.500 95.071 C 154.500 70.726,154.541 64.939,154.715 64.780 C 154.925 64.587,155.378 64.311,155.958 64.021 C 157.303 63.349,157.739 63.167,158.006 63.167 C 158.175 63.167,158.360 63.092,158.417 63.000 C 158.473 62.908,158.740 62.833,159.010 62.833 C 159.279 62.833,159.500 62.758,159.500 62.667 C 159.500 62.575,159.748 62.500,160.050 62.500 C 160.353 62.500,160.671 62.432,160.758 62.348 C 161.091 62.029,166.108 61.708,166.388 61.988 C 166.486 62.086,167.002 62.167,167.533 62.167 C 168.067 62.167,168.500 62.241,168.500 62.333 C 168.500 62.425,168.800 62.500,169.167 62.500 C 169.533 62.500,169.833 62.575,169.833 62.667 C 169.833 62.758,169.984 62.833,170.169 62.833 C 170.354 62.833,170.635 62.900,170.794 62.982 C 170.953 63.063,171.438 63.300,171.872 63.507 C 172.702 63.902,174.246 65.135,174.661 65.732 C 174.795 65.925,175.039 66.229,175.203 66.406 C 175.366 66.584,175.500 66.794,175.500 66.872 C 175.500 66.950,175.650 67.175,175.833 67.372 C 176.017 67.569,176.167 67.861,176.167 68.022 C 176.167 68.182,176.242 68.360,176.333 68.417 C 176.425 68.473,176.500 68.665,176.500 68.843 C 176.500 69.021,176.575 69.167,176.667 69.167 C 176.758 69.167,176.833 69.392,176.833 69.667 C 176.833 69.942,176.908 70.167,177.000 70.167 C 177.092 70.167,177.167 70.425,177.167 70.740 C 177.167 71.056,177.242 71.360,177.333 71.417 C 177.425 71.473,177.500 71.848,177.500 72.250 C 177.500 72.652,177.575 73.027,177.667 73.083 C 177.758 73.140,177.833 73.740,177.833 74.417 C 177.833 75.093,177.908 75.693,178.000 75.750 C 178.110 75.818,178.168 84.074,178.169 99.968 C 178.172 126.212,178.122 124.828,179.108 125.958 C 179.450 126.351,179.722 126.500,180.096 126.500 C 180.379 126.500,180.650 126.539,180.698 126.587 C 180.837 126.726,201.833 126.764,201.833 126.625 C 201.833 126.556,202.088 126.500,202.400 126.500 C 202.829 126.500,203.113 126.354,203.568 125.899 L 204.169 125.298 204.104 99.024 C 204.058 80.770,203.981 72.292,203.849 71.250 C 203.745 70.425,203.618 69.300,203.566 68.750 C 203.514 68.200,203.403 67.679,203.319 67.592 C 203.235 67.505,203.167 67.163,203.167 66.833 C 203.167 66.503,203.099 66.162,203.017 66.075 C 202.935 65.988,202.822 65.598,202.767 65.208 C 202.517 63.443,202.456 63.167,202.316 63.167 C 202.234 63.167,202.167 62.909,202.167 62.593 C 202.167 62.278,202.092 61.973,202.000 61.917 C 201.908 61.860,201.833 61.593,201.833 61.323 C 201.833 61.054,201.758 60.833,201.667 60.833 C 201.575 60.833,201.500 60.682,201.500 60.498 C 201.500 60.313,201.413 59.994,201.307 59.789 C 200.893 58.987,200.833 58.826,200.833 58.502 C 200.833 58.318,200.758 58.167,200.667 58.167 C 200.575 58.167,200.500 57.984,200.500 57.760 C 200.500 57.536,200.425 57.307,200.333 57.250 C 200.242 57.193,200.167 57.001,200.167 56.823 C 200.167 56.646,200.092 56.500,200.000 56.500 C 199.908 56.500,199.833 56.350,199.833 56.167 C 199.833 55.983,199.758 55.833,199.667 55.833 C 199.575 55.833,199.500 55.728,199.500 55.599 C 199.500 55.383,198.859 54.025,198.666 53.833 C 198.620 53.788,198.473 53.525,198.338 53.250 C 198.204 52.975,197.901 52.450,197.667 52.083 C 197.432 51.717,197.136 51.210,197.008 50.958 C 196.881 50.706,196.715 50.500,196.639 50.500 C 196.562 50.500,196.500 50.403,196.500 50.285 C 196.500 50.167,196.200 49.738,195.833 49.333 C 195.467 48.928,195.167 48.539,195.167 48.468 C 195.167 48.096,190.372 43.374,189.802 43.184 C 189.690 43.147,189.450 42.978,189.268 42.808 C 189.086 42.639,188.839 42.500,188.719 42.500 C 188.598 42.500,188.500 42.425,188.500 42.333 C 188.500 42.242,188.356 42.167,188.181 42.167 C 188.005 42.167,187.836 42.110,187.806 42.042 C 187.736 41.885,186.848 41.344,186.458 41.220 C 186.298 41.169,186.167 41.062,186.167 40.981 C 186.167 40.900,186.017 40.833,185.833 40.833 C 185.650 40.833,185.500 40.758,185.500 40.667 C 185.500 40.575,185.350 40.500,185.167 40.500 C 184.983 40.500,184.833 40.425,184.833 40.333 C 184.833 40.242,184.683 40.167,184.500 40.167 C 184.317 40.167,184.167 40.092,184.167 40.000 C 184.167 39.908,184.021 39.833,183.843 39.833 C 183.665 39.833,183.473 39.758,183.417 39.667 C 183.360 39.575,183.131 39.500,182.907 39.500 C 182.683 39.500,182.500 39.425,182.500 39.333 C 182.500 39.242,182.354 39.167,182.177 39.167 C 181.999 39.167,181.807 39.092,181.750 39.000 C 181.693 38.908,181.464 38.833,181.240 38.833 C 181.016 38.833,180.833 38.758,180.833 38.667 C 180.833 38.575,180.650 38.500,180.427 38.500 C 180.203 38.500,179.973 38.425,179.917 38.333 C 179.860 38.242,179.635 38.167,179.417 38.167 C 179.198 38.167,178.973 38.092,178.917 38.000 C 178.860 37.908,178.598 37.833,178.333 37.833 C 178.069 37.833,177.807 37.758,177.750 37.667 C 177.693 37.575,177.431 37.500,177.167 37.500 C 176.902 37.500,176.640 37.425,176.583 37.333 C 176.527 37.242,176.264 37.167,176.000 37.167 C 175.736 37.167,175.473 37.092,175.417 37.000 C 175.360 36.908,174.985 36.833,174.583 36.833 C 174.182 36.833,173.807 36.758,173.750 36.667 C 173.693 36.575,173.281 36.500,172.833 36.500 C 172.386 36.500,171.973 36.425,171.917 36.333 C 171.860 36.242,171.260 36.167,170.583 36.167 C 169.907 36.167,169.307 36.092,169.250 36.000 C 169.110 35.773,160.223 35.773,160.083 36.000 C 160.027 36.092,159.422 36.167,158.740 36.167 C 158.024 36.167,157.500 36.237,157.500 36.333 C 157.500 36.425,157.129 36.500,156.677 36.500 C 156.224 36.500,155.807 36.575,155.750 36.667 C 155.693 36.758,155.390 36.833,155.075 36.833 L 154.504 36.833 154.442 23.708 C 154.383 11.193,154.323 9.283,153.982 9.072 C 153.900 9.022,153.833 8.834,153.833 8.655 C 153.833 8.475,153.758 8.180,153.667 7.998 C 153.575 7.816,153.425 7.518,153.333 7.336 C 153.242 7.154,153.167 6.925,153.167 6.829 C 153.167 6.732,153.017 6.492,152.833 6.295 C 152.650 6.098,152.500 5.839,152.500 5.719 C 152.500 5.598,152.425 5.500,152.333 5.500 C 152.242 5.500,152.167 5.383,152.167 5.241 C 152.167 4.919,149.060 1.833,148.736 1.833 C 148.606 1.833,148.500 1.770,148.500 1.693 C 148.500 1.562,147.454 1.004,146.500 0.626 C 146.271 0.535,145.933 0.379,145.750 0.279 C 145.411 0.094,139.057 -0.044,138.083 0.112 M79.583 35.330 C 79.400 35.411,78.636 35.482,77.885 35.488 C 77.134 35.495,76.473 35.575,76.417 35.667 C 76.360 35.758,75.873 35.833,75.333 35.833 C 74.794 35.833,74.307 35.908,74.250 36.000 C 74.193 36.092,73.856 36.167,73.500 36.167 C 73.144 36.167,72.807 36.242,72.750 36.333 C 72.693 36.425,72.393 36.500,72.083 36.500 C 71.773 36.500,71.473 36.575,71.417 36.667 C 71.360 36.758,71.056 36.833,70.740 36.833 C 70.425 36.833,70.167 36.908,70.167 37.000 C 70.167 37.092,69.984 37.167,69.760 37.167 C 69.536 37.167,69.307 37.242,69.250 37.333 C 69.193 37.425,68.926 37.500,68.657 37.500 C 68.387 37.500,68.167 37.575,68.167 37.667 C 68.167 37.758,68.024 37.833,67.849 37.833 C 67.674 37.833,67.243 37.975,66.891 38.148 C 66.538 38.321,65.725 38.713,65.083 39.019 C 64.442 39.326,63.879 39.616,63.833 39.663 C 63.656 39.848,62.994 40.167,62.789 40.167 C 62.671 40.167,62.465 40.317,62.333 40.500 C 62.201 40.683,61.960 40.833,61.797 40.833 C 61.633 40.833,61.500 40.896,61.500 40.972 C 61.500 41.048,61.294 41.216,61.042 41.346 C 60.790 41.475,60.471 41.698,60.333 41.840 C 60.196 41.983,59.822 42.282,59.502 42.506 C 58.046 43.525,53.833 47.772,53.833 48.221 C 53.833 48.307,53.702 48.500,53.542 48.649 C 53.274 48.898,53.115 49.141,52.599 50.083 C 52.499 50.267,52.379 50.454,52.333 50.500 C 52.229 50.605,51.604 51.777,50.957 53.083 C 50.685 53.633,50.395 54.214,50.314 54.373 C 50.233 54.532,50.167 54.777,50.167 54.917 C 50.167 55.057,50.080 55.339,49.974 55.544 C 49.553 56.358,49.500 56.511,49.500 56.905 C 49.500 57.130,49.425 57.360,49.333 57.417 C 49.242 57.473,49.167 57.740,49.167 58.010 C 49.167 58.279,49.092 58.500,49.000 58.500 C 48.908 58.500,48.833 58.833,48.833 59.240 C 48.833 59.647,48.758 60.027,48.667 60.083 C 48.575 60.140,48.500 60.617,48.500 61.143 C 48.500 61.669,48.422 62.178,48.326 62.274 C 47.993 62.607,48.320 70.865,48.681 71.242 C 48.765 71.329,48.833 71.722,48.833 72.117 C 48.833 72.511,48.908 72.833,49.000 72.833 C 49.092 72.833,49.167 73.059,49.167 73.336 C 49.167 73.612,49.242 73.987,49.333 74.169 C 49.425 74.351,49.575 74.649,49.667 74.831 C 49.758 75.013,49.833 75.313,49.833 75.498 C 49.833 75.682,49.908 75.833,50.000 75.833 C 50.092 75.833,50.167 75.981,50.167 76.162 C 50.167 76.342,50.317 76.757,50.500 77.083 C 50.683 77.410,50.833 77.787,50.833 77.922 C 50.833 78.056,50.908 78.167,51.000 78.167 C 51.092 78.167,51.167 78.264,51.167 78.383 C 51.167 78.690,51.559 79.497,51.708 79.499 C 51.777 79.499,51.833 79.650,51.833 79.833 C 51.833 80.017,51.908 80.167,52.000 80.167 C 52.092 80.167,52.167 80.246,52.167 80.342 C 52.167 80.439,52.467 80.960,52.833 81.500 C 53.200 82.040,53.500 82.544,53.500 82.621 C 53.500 82.697,53.650 82.868,53.833 83.000 C 54.017 83.132,54.167 83.336,54.167 83.453 C 54.167 84.027,59.476 88.935,60.872 89.653 C 61.123 89.781,61.476 90.025,61.657 90.193 C 61.838 90.362,62.065 90.500,62.162 90.500 C 62.333 90.500,62.998 90.831,63.167 91.000 C 63.264 91.098,63.856 91.379,64.625 91.693 C 64.923 91.815,65.167 91.971,65.167 92.041 C 65.167 92.110,65.318 92.167,65.502 92.167 C 65.687 92.167,65.987 92.242,66.169 92.333 C 66.351 92.425,66.649 92.575,66.831 92.667 C 67.013 92.758,67.309 92.833,67.488 92.833 C 67.667 92.833,67.860 92.908,67.917 93.000 C 67.973 93.092,68.198 93.167,68.417 93.167 C 68.635 93.167,68.860 93.242,68.917 93.333 C 68.973 93.425,69.278 93.500,69.593 93.500 C 69.909 93.500,70.167 93.567,70.167 93.649 C 70.167 93.789,70.443 93.850,72.208 94.100 C 72.598 94.156,72.988 94.268,73.075 94.350 C 73.162 94.433,73.589 94.500,74.023 94.500 C 74.458 94.500,74.860 94.575,74.917 94.667 C 74.973 94.758,75.578 94.833,76.260 94.833 C 76.976 94.833,77.500 94.904,77.500 95.000 C 77.500 95.100,78.167 95.167,79.167 95.167 C 80.093 95.167,80.833 95.236,80.833 95.323 C 80.833 95.409,81.640 95.519,82.625 95.567 C 85.511 95.709,86.906 95.849,87.075 96.013 C 87.162 96.098,87.514 96.167,87.857 96.167 C 88.200 96.167,88.527 96.242,88.583 96.333 C 88.640 96.425,88.869 96.500,89.093 96.500 C 89.317 96.500,89.500 96.575,89.500 96.667 C 89.500 96.758,89.631 96.835,89.792 96.837 C 90.154 96.842,91.833 98.525,91.833 98.884 C 91.833 99.029,91.908 99.193,92.000 99.250 C 92.092 99.307,92.167 99.907,92.167 100.583 C 92.167 101.260,92.092 101.860,92.000 101.917 C 91.908 101.973,91.833 102.153,91.833 102.317 C 91.833 102.694,90.454 104.167,90.100 104.167 C 89.953 104.167,89.833 104.223,89.832 104.292 C 89.830 104.441,89.023 104.833,88.717 104.833 C 88.598 104.833,88.500 104.908,88.500 105.000 C 88.500 105.092,88.317 105.167,88.093 105.167 C 87.869 105.167,87.640 105.242,87.583 105.333 C 87.527 105.425,87.110 105.500,86.657 105.500 C 86.204 105.500,85.833 105.575,85.833 105.667 C 85.833 105.771,84.809 105.833,83.093 105.833 C 81.446 105.833,80.312 105.767,80.250 105.667 C 80.193 105.575,79.781 105.500,79.333 105.500 C 78.886 105.500,78.473 105.425,78.417 105.333 C 78.360 105.242,78.060 105.167,77.750 105.167 C 77.440 105.167,77.140 105.092,77.083 105.000 C 77.027 104.908,76.764 104.833,76.500 104.833 C 76.236 104.833,75.973 104.758,75.917 104.667 C 75.860 104.575,75.668 104.500,75.490 104.500 C 75.312 104.500,75.167 104.425,75.167 104.333 C 75.167 104.242,75.053 104.167,74.914 104.167 C 74.776 104.167,74.532 104.100,74.373 104.018 C 74.214 103.937,73.708 103.696,73.250 103.483 C 72.332 103.057,70.948 102.179,70.861 101.968 C 70.831 101.894,70.710 101.833,70.594 101.833 C 70.478 101.833,70.164 101.627,69.896 101.375 C 69.628 101.123,69.118 100.697,68.761 100.430 C 68.405 100.162,67.807 99.624,67.432 99.234 C 66.330 98.088,64.759 97.446,64.417 98.000 C 64.360 98.092,64.179 98.167,64.015 98.167 C 63.851 98.167,63.481 98.392,63.193 98.667 C 62.905 98.942,62.613 99.169,62.543 99.171 C 62.474 99.174,61.935 99.624,61.347 100.171 C 60.759 100.719,60.207 101.167,60.122 101.167 C 60.037 101.167,59.768 101.373,59.525 101.626 C 59.282 101.878,58.821 102.280,58.500 102.520 C 58.179 102.760,57.617 103.227,57.250 103.557 C 56.883 103.888,56.520 104.161,56.442 104.163 C 56.364 104.165,56.102 104.373,55.859 104.626 C 55.616 104.878,55.142 105.289,54.806 105.540 C 54.470 105.790,54.095 106.092,53.973 106.211 C 53.850 106.330,53.487 106.610,53.167 106.832 C 52.846 107.055,52.396 107.428,52.167 107.661 C 51.938 107.894,51.475 108.289,51.139 108.540 C 50.804 108.790,50.429 109.092,50.306 109.211 C 50.184 109.330,49.829 109.607,49.518 109.825 C 47.631 111.153,47.149 113.285,48.432 114.625 C 48.762 114.969,49.231 115.512,49.474 115.833 C 49.974 116.491,51.456 117.959,52.502 118.833 C 52.886 119.154,53.436 119.643,53.725 119.919 C 54.014 120.196,54.512 120.607,54.833 120.834 C 55.154 121.060,55.529 121.335,55.667 121.445 C 56.531 122.136,57.523 122.833,57.642 122.833 C 57.719 122.833,57.917 122.983,58.083 123.167 C 58.249 123.350,58.486 123.500,58.609 123.500 C 58.732 123.500,58.833 123.575,58.833 123.667 C 58.833 123.758,58.949 123.833,59.090 123.833 C 59.232 123.833,59.508 123.983,59.705 124.167 C 59.902 124.350,60.161 124.500,60.281 124.500 C 60.402 124.500,60.500 124.575,60.500 124.667 C 60.500 124.758,60.650 124.833,60.833 124.833 C 61.017 124.833,61.167 124.908,61.167 125.000 C 61.167 125.092,61.310 125.167,61.486 125.167 C 61.662 125.167,61.831 125.223,61.861 125.292 C 61.917 125.419,63.611 126.277,64.625 126.693 C 64.923 126.815,65.167 126.971,65.167 127.041 C 65.167 127.110,65.312 127.167,65.490 127.167 C 65.668 127.167,65.860 127.242,65.917 127.333 C 65.973 127.425,66.203 127.500,66.427 127.500 C 66.650 127.500,66.833 127.575,66.833 127.667 C 66.833 127.758,67.016 127.833,67.240 127.833 C 67.464 127.833,67.693 127.908,67.750 128.000 C 67.807 128.092,68.032 128.167,68.250 128.167 C 68.468 128.167,68.693 128.242,68.750 128.333 C 68.807 128.425,69.069 128.500,69.333 128.500 C 69.598 128.500,69.860 128.575,69.917 128.667 C 69.973 128.758,70.236 128.833,70.500 128.833 C 70.764 128.833,71.027 128.908,71.083 129.000 C 71.140 129.092,71.402 129.167,71.667 129.167 C 71.931 129.167,72.193 129.242,72.250 129.333 C 72.307 129.425,72.682 129.500,73.083 129.500 C 73.485 129.500,73.860 129.575,73.917 129.667 C 73.973 129.758,74.311 129.833,74.667 129.833 C 75.023 129.833,75.360 129.908,75.417 130.000 C 75.473 130.092,75.998 130.167,76.583 130.167 C 77.168 130.167,77.693 130.242,77.750 130.333 C 77.890 130.561,88.110 130.561,88.250 130.333 C 88.307 130.242,88.836 130.167,89.427 130.167 C 90.031 130.167,90.500 130.094,90.500 130.000 C 90.500 129.908,90.875 129.833,91.333 129.833 C 91.792 129.833,92.167 129.766,92.167 129.684 C 92.167 129.602,92.448 129.493,92.792 129.441 C 94.254 129.220,94.675 129.121,94.761 128.982 C 94.812 128.900,95.074 128.833,95.343 128.833 C 95.613 128.833,95.833 128.758,95.833 128.667 C 95.833 128.575,96.016 128.500,96.240 128.500 C 96.464 128.500,96.693 128.425,96.750 128.333 C 96.807 128.242,96.999 128.167,97.177 128.167 C 97.354 128.167,97.500 128.092,97.500 128.000 C 97.500 127.908,97.725 127.833,98.000 127.833 C 98.275 127.833,98.501 127.777,98.501 127.708 C 98.503 127.559,99.310 127.167,99.617 127.167 C 99.736 127.167,99.833 127.092,99.833 127.000 C 99.833 126.908,99.983 126.833,100.167 126.833 C 100.350 126.833,100.501 126.777,100.501 126.708 C 100.503 126.559,101.310 126.167,101.617 126.167 C 101.736 126.167,101.833 126.092,101.833 126.000 C 101.833 125.908,101.927 125.833,102.042 125.833 C 102.156 125.833,102.513 125.608,102.833 125.333 C 103.154 125.059,103.510 124.834,103.625 124.834 C 103.740 124.834,103.833 124.758,103.833 124.667 C 103.833 124.575,103.935 124.500,104.059 124.500 C 104.183 124.500,104.501 124.293,104.767 124.040 C 105.033 123.787,105.501 123.401,105.809 123.183 C 106.493 122.697,109.500 119.708,109.500 119.514 C 109.500 119.437,109.800 119.064,110.167 118.687 C 110.533 118.309,110.833 117.887,110.833 117.750 C 110.833 117.612,110.891 117.500,110.961 117.500 C 111.031 117.500,111.273 117.200,111.500 116.833 C 111.727 116.467,111.969 116.167,112.039 116.167 C 112.109 116.167,112.167 116.023,112.167 115.847 C 112.167 115.672,112.226 115.503,112.298 115.472 C 112.370 115.442,112.633 115.004,112.882 114.500 C 113.131 113.996,113.438 113.396,113.565 113.167 C 113.691 112.938,113.887 112.525,114.000 112.250 C 114.113 111.975,114.272 111.620,114.353 111.461 C 114.434 111.301,114.500 111.025,114.500 110.845 C 114.500 110.666,114.575 110.473,114.667 110.417 C 114.758 110.360,114.833 110.131,114.833 109.907 C 114.833 109.683,114.908 109.500,115.000 109.500 C 115.092 109.500,115.167 109.279,115.167 109.010 C 115.167 108.740,115.242 108.473,115.333 108.417 C 115.425 108.360,115.500 107.985,115.500 107.583 C 115.500 107.182,115.575 106.807,115.667 106.750 C 115.758 106.693,115.833 106.281,115.833 105.833 C 115.833 105.386,115.908 104.973,116.000 104.917 C 116.104 104.852,116.167 103.252,116.167 100.667 C 116.167 98.082,116.104 96.481,116.000 96.417 C 115.908 96.360,115.833 95.910,115.833 95.417 C 115.833 94.923,115.758 94.473,115.667 94.417 C 115.575 94.360,115.500 94.060,115.500 93.750 C 115.500 93.440,115.425 93.140,115.333 93.083 C 115.242 93.027,115.167 92.821,115.167 92.627 C 115.167 92.252,114.889 91.275,114.646 90.794 C 114.566 90.635,114.500 90.354,114.500 90.169 C 114.500 89.984,114.425 89.833,114.333 89.833 C 114.242 89.833,114.167 89.720,114.167 89.581 C 114.167 89.442,114.080 89.161,113.974 88.956 C 113.570 88.174,113.500 87.997,113.500 87.752 C 113.500 87.614,113.425 87.500,113.333 87.500 C 113.242 87.500,113.167 87.356,113.167 87.181 C 113.167 87.005,113.110 86.836,113.042 86.806 C 112.973 86.775,112.736 86.394,112.515 85.958 C 112.295 85.523,112.051 85.167,111.974 85.167 C 111.897 85.167,111.833 85.068,111.833 84.948 C 111.833 84.828,111.683 84.569,111.500 84.372 C 111.317 84.175,111.166 83.955,111.166 83.882 C 111.166 83.809,110.941 83.487,110.667 83.167 C 110.392 82.846,110.167 82.534,110.167 82.473 C 110.167 82.413,109.773 81.946,109.292 81.435 C 108.810 80.925,108.187 80.262,107.906 79.962 C 107.241 79.251,105.369 77.601,105.134 77.520 C 105.033 77.484,104.726 77.241,104.451 76.978 C 104.176 76.715,103.849 76.500,103.725 76.500 C 103.601 76.500,103.500 76.438,103.500 76.361 C 103.500 76.285,103.294 76.117,103.042 75.987 C 102.790 75.857,102.546 75.713,102.500 75.667 C 102.372 75.539,100.844 74.742,98.984 73.833 C 98.609 73.650,98.196 73.500,98.068 73.500 C 97.939 73.500,97.833 73.425,97.833 73.333 C 97.833 73.242,97.650 73.167,97.427 73.167 C 97.203 73.167,96.973 73.092,96.917 73.000 C 96.860 72.908,96.598 72.833,96.333 72.833 C 96.069 72.833,95.807 72.758,95.750 72.667 C 95.693 72.575,95.468 72.500,95.250 72.500 C 95.032 72.500,94.807 72.425,94.750 72.333 C 94.693 72.242,94.356 72.167,94.000 72.167 C 93.644 72.167,93.307 72.092,93.250 72.000 C 93.193 71.908,92.856 71.833,92.500 71.833 C 92.144 71.833,91.807 71.758,91.750 71.667 C 91.693 71.575,91.168 71.500,90.583 71.500 C 89.998 71.500,89.473 71.425,89.417 71.333 C 89.360 71.242,88.733 71.167,88.023 71.167 C 87.314 71.167,86.662 71.096,86.575 71.010 C 86.488 70.925,85.629 70.816,84.667 70.768 C 83.704 70.721,82.242 70.606,81.417 70.512 C 80.592 70.418,79.504 70.295,79.000 70.239 C 78.496 70.182,78.012 70.068,77.925 69.985 C 77.838 69.901,77.486 69.833,77.143 69.833 C 76.800 69.833,76.473 69.758,76.417 69.667 C 76.360 69.575,76.135 69.500,75.917 69.500 C 75.698 69.500,75.473 69.425,75.417 69.333 C 75.360 69.242,75.131 69.167,74.907 69.167 C 74.683 69.167,74.500 69.092,74.500 69.000 C 74.500 68.908,74.402 68.833,74.283 68.833 C 73.799 68.833,72.500 67.317,72.500 66.752 C 72.500 66.614,72.425 66.500,72.333 66.500 C 72.242 66.500,72.167 66.129,72.167 65.677 C 72.167 65.224,72.242 64.807,72.333 64.750 C 72.425 64.693,72.500 64.464,72.500 64.240 C 72.500 64.016,72.557 63.833,72.627 63.833 C 72.697 63.833,72.940 63.533,73.167 63.167 C 73.393 62.800,73.655 62.500,73.748 62.500 C 73.841 62.499,74.179 62.275,74.500 62.000 C 74.821 61.725,75.210 61.501,75.365 61.500 C 75.520 61.500,75.693 61.425,75.750 61.333 C 75.807 61.242,75.999 61.167,76.177 61.167 C 76.354 61.167,76.500 61.092,76.500 61.000 C 76.500 60.908,76.725 60.833,77.000 60.833 C 77.275 60.833,77.500 60.758,77.500 60.667 C 77.500 60.575,77.785 60.500,78.133 60.500 C 78.482 60.500,78.838 60.431,78.925 60.346 C 79.012 60.261,79.784 60.167,80.641 60.138 C 81.498 60.108,82.233 60.027,82.276 59.958 C 82.390 59.773,83.464 59.807,83.583 60.000 C 83.640 60.092,84.315 60.167,85.083 60.167 C 85.852 60.167,86.527 60.242,86.583 60.333 C 86.640 60.425,87.019 60.500,87.427 60.500 C 87.834 60.500,88.167 60.575,88.167 60.667 C 88.167 60.758,88.387 60.833,88.657 60.833 C 88.926 60.833,89.193 60.908,89.250 61.000 C 89.307 61.092,89.569 61.167,89.833 61.167 C 90.098 61.167,90.360 61.242,90.417 61.333 C 90.473 61.425,90.666 61.500,90.845 61.500 C 91.025 61.500,91.301 61.566,91.461 61.647 C 91.620 61.728,91.975 61.887,92.250 62.000 C 92.525 62.113,92.880 62.272,93.039 62.353 C 93.199 62.434,93.442 62.500,93.581 62.500 C 93.720 62.500,93.833 62.575,93.833 62.667 C 93.833 62.758,93.981 62.833,94.162 62.833 C 94.342 62.833,94.757 62.983,95.083 63.167 C 95.410 63.350,95.787 63.500,95.922 63.500 C 96.056 63.500,96.167 63.575,96.167 63.667 C 96.167 63.758,96.277 63.833,96.412 63.833 C 96.546 63.833,96.924 63.983,97.250 64.167 C 97.576 64.350,97.987 64.500,98.162 64.500 C 98.337 64.500,98.527 64.575,98.583 64.667 C 98.640 64.758,98.977 64.833,99.333 64.833 C 99.689 64.833,100.027 64.908,100.083 65.000 C 100.143 65.096,101.030 65.167,102.177 65.167 C 103.392 65.167,104.167 65.102,104.167 65.000 C 104.167 64.908,104.462 64.833,104.823 64.833 C 105.185 64.833,105.527 64.758,105.583 64.667 C 105.640 64.575,105.833 64.500,106.012 64.500 C 106.191 64.500,106.468 64.431,106.627 64.347 C 106.786 64.263,107.181 64.080,107.504 63.941 C 107.827 63.801,108.315 63.495,108.587 63.260 C 108.860 63.026,109.141 62.834,109.211 62.834 C 109.360 62.833,111.500 60.721,111.500 60.575 C 111.500 60.521,111.709 60.163,111.963 59.780 C 112.407 59.113,112.528 58.876,112.997 57.750 C 113.112 57.475,113.272 57.120,113.353 56.961 C 113.434 56.801,113.500 56.408,113.500 56.086 C 113.500 55.764,113.579 55.500,113.676 55.500 C 114.019 55.500,113.672 49.959,113.316 49.739 C 113.234 49.688,113.167 49.500,113.167 49.321 C 113.167 49.142,113.092 48.846,113.000 48.664 C 112.908 48.482,112.758 48.183,112.667 48.000 C 112.338 47.343,112.079 46.928,111.792 46.602 C 111.631 46.420,111.500 46.202,111.500 46.119 C 111.500 46.035,111.275 45.757,111.000 45.500 C 110.725 45.243,110.500 44.959,110.500 44.869 C 110.500 44.779,110.331 44.594,110.125 44.458 C 109.919 44.322,109.448 43.920,109.079 43.564 C 108.710 43.208,108.204 42.810,107.954 42.680 C 107.704 42.550,107.500 42.381,107.500 42.305 C 107.500 42.229,107.384 42.167,107.243 42.167 C 107.102 42.167,106.825 42.017,106.628 41.833 C 106.431 41.650,106.172 41.500,106.052 41.500 C 105.932 41.500,105.833 41.425,105.833 41.333 C 105.833 41.242,105.683 41.167,105.500 41.167 C 105.317 41.167,105.167 41.092,105.167 41.000 C 105.167 40.908,105.017 40.833,104.833 40.833 C 104.650 40.833,104.499 40.777,104.499 40.708 C 104.497 40.559,103.690 40.167,103.383 40.167 C 103.264 40.167,103.167 40.092,103.167 40.000 C 103.167 39.908,103.017 39.833,102.833 39.833 C 102.650 39.833,102.500 39.758,102.500 39.667 C 102.500 39.575,102.350 39.500,102.167 39.500 C 101.983 39.500,101.833 39.425,101.833 39.333 C 101.833 39.242,101.720 39.167,101.581 39.167 C 101.442 39.167,101.180 39.092,100.998 39.000 C 100.816 38.908,100.518 38.758,100.336 38.667 C 100.154 38.575,99.891 38.500,99.752 38.500 C 99.614 38.500,99.500 38.425,99.500 38.333 C 99.500 38.242,99.349 38.167,99.164 38.167 C 98.980 38.167,98.680 38.092,98.498 38.000 C 98.316 37.908,98.018 37.758,97.836 37.667 C 97.654 37.575,97.358 37.500,97.179 37.500 C 97.000 37.500,96.807 37.425,96.750 37.333 C 96.693 37.242,96.431 37.167,96.167 37.167 C 95.902 37.167,95.640 37.092,95.583 37.000 C 95.527 36.908,95.260 36.833,94.990 36.833 C 94.721 36.833,94.500 36.758,94.500 36.667 C 94.500 36.575,94.204 36.500,93.843 36.500 C 93.482 36.500,93.140 36.425,93.083 36.333 C 93.027 36.242,92.689 36.167,92.333 36.167 C 91.977 36.167,91.640 36.092,91.583 36.000 C 91.527 35.908,91.087 35.833,90.607 35.833 C 90.126 35.833,89.662 35.763,89.575 35.678 C 89.270 35.377,80.193 35.061,79.583 35.330 M256.750 35.333 C 256.693 35.425,255.946 35.500,255.083 35.500 C 254.221 35.500,253.473 35.575,253.417 35.667 C 253.360 35.758,252.873 35.833,252.333 35.833 C 251.794 35.833,251.307 35.908,251.250 36.000 C 251.193 36.092,250.818 36.167,250.417 36.167 C 250.015 36.167,249.645 36.234,249.594 36.316 C 249.544 36.398,249.202 36.510,248.834 36.566 C 248.467 36.621,247.867 36.712,247.500 36.768 C 247.133 36.823,246.833 36.935,246.833 37.018 C 246.833 37.100,246.575 37.167,246.260 37.167 C 245.944 37.167,245.640 37.242,245.583 37.333 C 245.527 37.425,245.302 37.500,245.083 37.500 C 244.865 37.500,244.640 37.575,244.583 37.667 C 244.527 37.758,244.302 37.833,244.083 37.833 C 243.865 37.833,243.640 37.908,243.583 38.000 C 243.527 38.092,243.335 38.167,243.157 38.167 C 242.979 38.167,242.833 38.242,242.833 38.333 C 242.833 38.425,242.608 38.500,242.333 38.500 C 242.058 38.500,241.833 38.575,241.833 38.667 C 241.833 38.758,241.723 38.833,241.588 38.833 C 241.454 38.833,241.076 38.983,240.750 39.167 C 240.424 39.350,240.015 39.500,239.842 39.500 C 239.669 39.500,239.503 39.556,239.472 39.625 C 239.394 39.800,238.015 40.500,237.748 40.500 C 237.627 40.500,237.503 40.556,237.472 40.625 C 237.425 40.731,236.271 41.371,234.876 42.064 C 234.671 42.166,234.502 42.306,234.501 42.375 C 234.501 42.444,234.397 42.500,234.270 42.500 C 234.144 42.500,233.946 42.614,233.831 42.753 C 233.715 42.892,233.369 43.126,233.060 43.272 C 232.752 43.418,232.500 43.604,232.500 43.686 C 232.500 43.767,232.423 43.833,232.329 43.833 C 232.178 43.833,230.052 45.392,229.833 45.663 C 229.787 45.720,229.497 45.943,229.188 46.159 C 227.795 47.132,222.955 51.998,222.051 53.333 C 221.896 53.563,221.633 53.871,221.468 54.020 C 221.302 54.168,221.166 54.355,221.166 54.436 C 221.166 54.517,220.941 54.846,220.667 55.167 C 220.392 55.487,220.167 55.827,220.167 55.922 C 220.167 56.016,220.017 56.201,219.833 56.333 C 219.650 56.465,219.500 56.707,219.500 56.870 C 219.500 57.033,219.438 57.167,219.361 57.167 C 219.285 57.167,219.117 57.373,218.987 57.625 C 218.857 57.877,218.713 58.121,218.667 58.167 C 218.512 58.321,217.992 59.245,217.706 59.875 C 217.549 60.219,217.364 60.500,217.294 60.500 C 217.224 60.500,217.167 60.644,217.167 60.819 C 217.167 60.995,217.110 61.164,217.042 61.194 C 216.915 61.251,216.376 62.308,215.974 63.292 C 215.852 63.590,215.695 63.833,215.626 63.833 C 215.557 63.833,215.500 63.984,215.500 64.169 C 215.500 64.354,215.434 64.635,215.353 64.794 C 215.272 64.953,215.122 65.290,215.019 65.542 C 214.917 65.794,214.750 66.206,214.647 66.458 C 214.545 66.710,214.395 67.047,214.314 67.206 C 214.233 67.365,214.167 67.646,214.167 67.831 C 214.167 68.016,214.092 68.167,214.000 68.167 C 213.908 68.167,213.833 68.393,213.833 68.669 C 213.833 68.945,213.766 69.301,213.683 69.461 C 213.600 69.620,213.445 70.087,213.338 70.500 C 213.231 70.912,213.074 71.480,212.989 71.762 C 212.903 72.043,212.833 72.470,212.833 72.710 C 212.833 72.950,212.758 73.193,212.667 73.250 C 212.575 73.307,212.500 73.709,212.500 74.143 C 212.500 74.578,212.431 75.005,212.347 75.092 C 211.978 75.473,211.646 87.879,211.995 88.229 C 212.090 88.323,212.167 88.947,212.167 89.617 C 212.167 90.317,212.237 90.833,212.333 90.833 C 212.425 90.833,212.500 91.204,212.500 91.657 C 212.500 92.110,212.575 92.527,212.667 92.583 C 212.758 92.640,212.833 92.977,212.833 93.333 C 212.833 93.689,212.908 94.027,213.000 94.083 C 213.092 94.140,213.167 94.408,213.167 94.679 C 213.167 94.950,213.234 95.301,213.317 95.461 C 213.400 95.620,213.557 96.087,213.667 96.500 C 213.776 96.912,213.934 97.380,214.016 97.539 C 214.099 97.699,214.167 97.943,214.167 98.083 C 214.167 98.223,214.233 98.468,214.314 98.627 C 214.395 98.786,214.554 99.142,214.667 99.417 C 214.780 99.692,214.938 100.047,215.019 100.206 C 215.100 100.365,215.167 100.646,215.167 100.831 C 215.167 101.016,215.242 101.167,215.333 101.167 C 215.425 101.167,215.500 101.280,215.500 101.419 C 215.500 101.558,215.575 101.820,215.667 102.002 C 215.758 102.184,215.908 102.482,216.000 102.664 C 216.092 102.846,216.167 103.109,216.167 103.248 C 216.167 103.386,216.242 103.500,216.333 103.500 C 216.425 103.500,216.500 103.644,216.500 103.819 C 216.500 103.995,216.557 104.164,216.626 104.194 C 216.695 104.225,217.006 104.756,217.317 105.375 C 217.629 105.994,217.947 106.500,218.025 106.500 C 218.103 106.500,218.167 106.650,218.167 106.833 C 218.167 107.017,218.242 107.167,218.333 107.167 C 218.425 107.167,218.500 107.265,218.500 107.385 C 218.500 107.505,218.631 107.753,218.792 107.935 C 219.065 108.246,219.179 108.426,219.708 109.373 C 219.823 109.578,220.048 109.869,220.208 110.018 C 220.369 110.167,220.500 110.345,220.500 110.413 C 220.500 110.481,220.800 110.895,221.167 111.333 C 221.533 111.771,221.833 112.176,221.833 112.233 C 221.833 112.291,222.208 112.730,222.665 113.210 C 223.122 113.690,223.497 114.139,223.498 114.206 C 223.501 114.378,227.484 118.321,228.230 118.890 C 228.566 119.146,229.023 119.538,229.246 119.761 C 229.469 119.984,229.711 120.169,229.784 120.171 C 229.857 120.174,230.251 120.474,230.661 120.838 C 231.070 121.202,231.484 121.500,231.582 121.500 C 231.680 121.500,231.868 121.650,232.000 121.833 C 232.132 122.017,232.322 122.167,232.422 122.167 C 232.522 122.167,232.753 122.298,232.935 122.458 C 233.247 122.732,233.444 122.858,234.375 123.375 C 234.581 123.490,234.787 123.621,234.833 123.667 C 234.998 123.832,235.923 124.356,236.208 124.446 C 236.369 124.497,236.500 124.605,236.500 124.686 C 236.500 124.767,236.602 124.833,236.727 124.833 C 237.000 124.833,239.060 125.865,239.139 126.042 C 239.169 126.110,239.302 126.167,239.433 126.167 C 239.564 126.167,239.801 126.233,239.961 126.314 C 240.231 126.452,240.564 126.592,241.583 127.000 C 242.603 127.408,242.935 127.548,243.206 127.686 C 243.365 127.767,243.610 127.833,243.750 127.833 C 243.997 127.833,244.173 127.903,244.956 128.307 C 245.161 128.413,245.513 128.500,245.738 128.500 C 245.963 128.500,246.193 128.575,246.250 128.667 C 246.307 128.758,246.611 128.833,246.927 128.833 C 247.242 128.833,247.500 128.908,247.500 129.000 C 247.500 129.092,247.758 129.167,248.073 129.167 C 248.389 129.167,248.693 129.242,248.750 129.333 C 248.807 129.425,249.144 129.500,249.500 129.500 C 249.856 129.500,250.193 129.575,250.250 129.667 C 250.307 129.758,250.719 129.833,251.167 129.833 C 251.614 129.833,252.027 129.908,252.083 130.000 C 252.140 130.092,252.740 130.167,253.417 130.167 C 254.093 130.167,254.693 130.242,254.750 130.333 C 254.815 130.439,256.776 130.500,260.083 130.500 C 263.390 130.500,265.352 130.439,265.417 130.333 C 265.473 130.242,266.036 130.167,266.667 130.167 C 267.298 130.167,267.860 130.092,267.917 130.000 C 267.973 129.908,268.386 129.833,268.833 129.833 C 269.281 129.833,269.693 129.758,269.750 129.667 C 269.807 129.575,270.144 129.500,270.500 129.500 C 270.856 129.500,271.193 129.425,271.250 129.333 C 271.307 129.242,271.611 129.167,271.927 129.167 C 272.242 129.167,272.500 129.092,272.500 129.000 C 272.500 128.908,272.800 128.833,273.167 128.833 C 273.533 128.833,273.833 128.758,273.833 128.667 C 273.833 128.575,274.016 128.500,274.240 128.500 C 274.464 128.500,274.693 128.425,274.750 128.333 C 274.807 128.242,275.037 128.167,275.262 128.167 C 275.656 128.167,275.809 128.114,276.623 127.693 C 276.828 127.587,277.110 127.500,277.250 127.500 C 277.390 127.500,277.635 127.434,277.794 127.354 C 279.080 126.706,279.573 126.500,279.835 126.500 C 280.002 126.500,280.164 126.444,280.194 126.375 C 280.274 126.195,281.655 125.500,281.932 125.500 C 282.061 125.500,282.167 125.444,282.168 125.375 C 282.170 125.225,282.977 124.833,283.283 124.833 C 283.402 124.833,283.500 124.767,283.500 124.686 C 283.500 124.605,283.631 124.497,283.792 124.446 C 284.077 124.356,285.002 123.832,285.167 123.667 C 285.212 123.621,285.419 123.490,285.625 123.375 C 285.831 123.260,286.168 123.073,286.373 122.958 C 286.578 122.844,286.869 122.619,287.018 122.458 C 287.167 122.298,287.395 122.167,287.524 122.167 C 287.654 122.167,287.868 122.017,288.000 121.833 C 288.132 121.650,288.304 121.500,288.381 121.500 C 288.459 121.500,288.917 121.181,289.399 120.792 C 289.881 120.402,290.527 119.896,290.834 119.667 C 291.141 119.438,291.620 119.063,291.898 118.833 C 292.607 118.248,296.320 114.521,296.886 113.826 C 297.145 113.509,297.571 112.987,297.834 112.667 C 298.670 111.647,299.500 110.502,299.500 110.369 C 299.500 110.298,299.650 110.132,299.833 110.000 C 300.017 109.868,300.167 109.661,300.167 109.540 C 300.167 109.418,300.317 109.158,300.500 108.962 C 300.683 108.765,300.833 108.505,300.833 108.385 C 300.833 108.265,300.908 108.167,301.000 108.167 C 301.092 108.167,301.167 108.068,301.167 107.948 C 301.167 107.828,301.317 107.569,301.500 107.372 C 301.683 107.175,301.833 106.898,301.833 106.757 C 301.833 106.616,301.897 106.500,301.975 106.500 C 302.053 106.500,302.371 105.994,302.683 105.375 C 302.994 104.756,303.305 104.225,303.374 104.194 C 303.443 104.164,303.500 103.995,303.500 103.819 C 303.500 103.644,303.575 103.500,303.667 103.500 C 303.758 103.500,303.833 103.357,303.833 103.182 C 303.833 103.008,303.994 102.539,304.190 102.141 C 304.525 101.463,304.664 101.139,305.022 100.208 C 305.303 99.480,305.541 98.913,305.686 98.627 C 305.767 98.468,305.833 98.149,305.833 97.919 C 305.833 97.689,305.908 97.500,306.000 97.500 C 306.092 97.500,306.167 97.279,306.167 97.010 C 306.167 96.740,306.242 96.473,306.333 96.417 C 306.425 96.360,306.500 96.098,306.500 95.833 C 306.500 95.569,306.575 95.307,306.667 95.250 C 306.758 95.193,306.833 94.893,306.833 94.583 C 306.833 94.273,306.908 93.973,307.000 93.917 C 307.092 93.860,307.167 93.560,307.167 93.250 C 307.167 92.940,307.242 92.640,307.333 92.583 C 307.425 92.527,307.500 92.114,307.500 91.667 C 307.500 91.219,307.575 90.807,307.667 90.750 C 307.758 90.693,307.833 90.131,307.833 89.500 C 307.833 88.869,307.908 88.307,308.000 88.250 C 308.105 88.185,308.167 86.196,308.167 82.833 C 308.167 79.471,308.105 77.482,308.000 77.417 C 307.908 77.360,307.833 76.835,307.833 76.250 C 307.833 75.665,307.758 75.140,307.667 75.083 C 307.575 75.027,307.500 74.614,307.500 74.167 C 307.500 73.719,307.433 73.312,307.351 73.261 C 307.269 73.210,307.159 72.887,307.107 72.543 C 306.887 71.081,306.788 70.658,306.648 70.572 C 306.567 70.522,306.500 70.227,306.500 69.917 C 306.500 69.607,306.425 69.307,306.333 69.250 C 306.242 69.193,306.167 68.926,306.167 68.657 C 306.167 68.387,306.092 68.167,306.000 68.167 C 305.908 68.167,305.833 68.016,305.833 67.831 C 305.833 67.646,305.767 67.365,305.686 67.206 C 305.605 67.047,305.455 66.710,305.353 66.458 C 305.250 66.206,305.083 65.794,304.981 65.542 C 304.878 65.290,304.728 64.953,304.647 64.794 C 304.566 64.635,304.500 64.354,304.500 64.169 C 304.500 63.984,304.443 63.833,304.374 63.833 C 304.305 63.833,304.148 63.590,304.026 63.292 C 303.720 62.545,302.776 60.602,302.670 60.500 C 302.622 60.454,302.428 60.117,302.237 59.750 C 301.789 58.886,301.438 58.271,301.333 58.167 C 301.287 58.121,301.143 57.877,301.013 57.625 C 300.883 57.373,300.715 57.167,300.639 57.167 C 300.562 57.167,300.500 57.033,300.500 56.870 C 300.500 56.707,300.350 56.465,300.167 56.333 C 299.983 56.201,299.833 56.016,299.833 55.922 C 299.833 55.827,299.608 55.487,299.333 55.167 C 299.059 54.846,298.834 54.517,298.834 54.436 C 298.834 54.355,298.698 54.168,298.532 54.020 C 298.367 53.871,298.103 53.563,297.947 53.333 C 297.026 51.985,291.104 46.063,290.461 45.848 C 290.348 45.811,290.154 45.678,290.030 45.554 C 289.906 45.430,289.530 45.123,289.194 44.872 C 288.858 44.622,288.438 44.285,288.260 44.125 C 288.083 43.965,287.839 43.833,287.719 43.833 C 287.598 43.833,287.500 43.758,287.500 43.667 C 287.500 43.575,287.402 43.500,287.281 43.500 C 287.161 43.500,286.902 43.350,286.705 43.167 C 286.508 42.983,286.283 42.833,286.205 42.833 C 286.127 42.833,285.914 42.702,285.733 42.542 C 285.313 42.171,284.590 41.735,283.792 41.372 C 283.448 41.216,283.167 41.031,283.167 40.961 C 283.167 40.891,283.065 40.833,282.940 40.833 C 282.666 40.833,280.606 39.801,280.528 39.625 C 280.497 39.556,280.365 39.500,280.234 39.500 C 280.103 39.500,279.846 39.425,279.664 39.333 C 279.482 39.242,279.184 39.092,279.002 39.000 C 278.820 38.908,278.558 38.833,278.419 38.833 C 278.280 38.833,278.167 38.758,278.167 38.667 C 278.167 38.575,277.984 38.500,277.760 38.500 C 277.536 38.500,277.307 38.425,277.250 38.333 C 277.193 38.242,276.968 38.167,276.750 38.167 C 276.532 38.167,276.307 38.092,276.250 38.000 C 276.193 37.908,275.968 37.833,275.750 37.833 C 275.532 37.833,275.307 37.758,275.250 37.667 C 275.193 37.575,274.968 37.500,274.750 37.500 C 274.532 37.500,274.307 37.425,274.250 37.333 C 274.193 37.242,273.926 37.167,273.657 37.167 C 273.387 37.167,273.167 37.092,273.167 37.000 C 273.167 36.908,272.867 36.833,272.500 36.833 C 272.133 36.833,271.833 36.758,271.833 36.667 C 271.833 36.575,271.538 36.500,271.177 36.500 C 270.815 36.500,270.473 36.425,270.417 36.333 C 270.360 36.242,269.985 36.167,269.583 36.167 C 269.182 36.167,268.807 36.092,268.750 36.000 C 268.693 35.908,268.206 35.833,267.667 35.833 C 267.127 35.833,266.640 35.758,266.583 35.667 C 266.527 35.575,265.779 35.500,264.917 35.500 C 264.054 35.500,263.307 35.425,263.250 35.333 C 263.187 35.232,261.918 35.167,260.000 35.167 C 258.082 35.167,256.813 35.232,256.750 35.333 M349.500 39.333 C 349.363 39.422,348.598 39.496,347.802 39.497 C 347.005 39.499,346.307 39.575,346.250 39.667 C 346.193 39.758,345.743 39.833,345.250 39.833 C 344.757 39.833,344.307 39.908,344.250 40.000 C 344.193 40.092,343.818 40.167,343.417 40.167 C 343.015 40.167,342.640 40.242,342.583 40.333 C 342.527 40.425,342.264 40.500,342.000 40.500 C 341.736 40.500,341.473 40.575,341.417 40.667 C 341.360 40.758,341.060 40.833,340.750 40.833 C 340.440 40.833,340.140 40.908,340.083 41.000 C 340.027 41.092,339.764 41.167,339.500 41.167 C 339.236 41.167,338.973 41.242,338.917 41.333 C 338.860 41.425,338.593 41.500,338.323 41.500 C 338.054 41.500,337.833 41.575,337.833 41.667 C 337.833 41.758,337.688 41.833,337.510 41.833 C 337.332 41.833,337.140 41.908,337.083 42.000 C 337.027 42.092,336.797 42.167,336.573 42.167 C 336.350 42.167,336.167 42.242,336.167 42.333 C 336.167 42.425,335.942 42.500,335.667 42.500 C 335.392 42.500,335.167 42.575,335.167 42.667 C 335.167 42.758,335.017 42.833,334.833 42.833 C 334.650 42.833,334.500 42.908,334.500 43.000 C 334.500 43.092,334.343 43.167,334.151 43.167 C 333.959 43.167,333.602 43.301,333.359 43.466 C 333.116 43.630,332.542 43.949,332.083 44.174 C 331.625 44.399,331.225 44.640,331.194 44.708 C 331.164 44.777,331.051 44.833,330.944 44.834 C 330.837 44.834,330.525 45.028,330.250 45.265 C 329.975 45.502,329.544 45.818,329.292 45.967 C 329.040 46.116,328.833 46.297,328.833 46.369 C 328.833 46.441,328.733 46.500,328.611 46.500 C 328.149 46.500,323.500 51.036,323.500 51.487 C 323.500 51.547,323.278 51.856,323.007 52.173 C 322.735 52.490,322.510 52.844,322.507 52.958 C 322.503 53.073,322.425 53.167,322.333 53.167 C 322.242 53.167,322.167 53.317,322.167 53.500 C 322.167 53.683,322.102 53.833,322.023 53.833 C 321.837 53.833,319.831 57.830,319.832 58.198 C 319.833 58.354,319.758 58.527,319.667 58.583 C 319.575 58.640,319.500 58.869,319.500 59.093 C 319.500 59.317,319.425 59.500,319.333 59.500 C 319.242 59.500,319.167 59.721,319.167 59.990 C 319.167 60.260,319.092 60.527,319.000 60.583 C 318.908 60.640,318.833 60.865,318.833 61.083 C 318.833 61.302,318.758 61.527,318.667 61.583 C 318.575 61.640,318.500 61.940,318.500 62.250 C 318.500 62.560,318.425 62.860,318.333 62.917 C 318.242 62.973,318.167 63.423,318.167 63.917 C 318.167 64.410,318.092 64.860,318.000 64.917 C 317.908 64.973,317.833 65.450,317.833 65.977 C 317.833 66.503,317.759 67.008,317.668 67.098 C 317.566 67.201,317.487 70.179,317.460 75.007 L 317.417 82.750 316.917 82.804 C 316.642 82.834,316.345 82.928,316.258 83.013 C 316.171 83.097,315.890 83.167,315.633 83.167 C 315.377 83.167,315.167 83.242,315.167 83.333 C 315.167 83.425,315.035 83.502,314.875 83.504 C 314.715 83.506,314.396 83.654,314.167 83.833 C 313.938 84.013,313.619 84.161,313.458 84.163 C 313.298 84.165,313.167 84.225,313.167 84.297 C 313.167 84.369,312.943 84.560,312.670 84.721 C 311.232 85.571,308.500 89.141,308.500 90.172 C 308.500 90.352,308.425 90.500,308.333 90.500 C 308.242 90.500,308.167 90.748,308.167 91.050 C 308.167 91.352,308.088 91.679,307.992 91.775 C 307.646 92.120,307.987 98.500,308.351 98.500 C 308.433 98.500,308.500 98.725,308.500 99.000 C 308.500 99.275,308.575 99.500,308.667 99.500 C 308.758 99.500,308.833 99.725,308.833 100.000 C 308.833 100.275,308.908 100.500,309.000 100.500 C 309.092 100.500,309.167 100.646,309.167 100.823 C 309.167 101.001,309.242 101.193,309.333 101.250 C 309.425 101.307,309.500 101.536,309.500 101.760 C 309.500 101.984,309.575 102.167,309.667 102.167 C 309.758 102.167,309.833 102.280,309.833 102.419 C 309.833 102.558,309.902 102.801,309.985 102.961 C 310.069 103.120,310.482 103.962,310.904 104.833 C 311.789 106.660,312.198 107.394,312.375 107.472 C 312.444 107.503,312.500 107.672,312.500 107.847 C 312.500 108.023,312.575 108.167,312.667 108.167 C 312.758 108.167,312.833 108.265,312.833 108.385 C 312.833 108.505,312.965 108.749,313.125 108.927 C 313.285 109.105,313.523 109.456,313.653 109.708 C 313.783 109.960,313.952 110.167,314.028 110.167 C 314.104 110.167,314.167 110.260,314.167 110.375 C 314.167 110.490,314.392 110.846,314.667 111.167 C 314.941 111.487,315.166 111.816,315.166 111.897 C 315.166 111.978,315.301 112.166,315.466 112.314 C 315.631 112.462,315.949 112.846,316.173 113.167 C 316.397 113.487,316.787 113.967,317.040 114.233 L 317.500 114.716 317.500 133.775 C 317.500 146.369,317.557 152.833,317.667 152.833 C 317.758 152.833,317.833 152.951,317.833 153.095 C 317.833 153.937,317.485 153.913,330.321 153.967 C 341.320 154.013,342.292 153.995,342.793 153.732 C 343.870 153.165,343.833 153.611,343.833 141.141 C 343.833 133.714,343.891 129.833,344.000 129.833 C 344.092 129.833,344.167 129.908,344.167 130.000 C 344.167 130.092,344.608 130.167,345.157 130.167 C 345.701 130.167,346.193 130.242,346.250 130.333 C 346.307 130.425,346.907 130.500,347.583 130.500 C 348.260 130.500,348.860 130.575,348.917 130.667 C 349.057 130.893,357.610 130.893,357.750 130.667 C 357.807 130.575,358.444 130.500,359.167 130.500 C 359.889 130.500,360.527 130.425,360.583 130.333 C 360.640 130.242,361.094 130.167,361.593 130.167 C 362.092 130.167,362.500 130.092,362.500 130.000 C 362.500 129.908,362.796 129.833,363.157 129.833 C 363.518 129.833,363.860 129.758,363.917 129.667 C 363.973 129.575,364.353 129.500,364.760 129.500 C 365.167 129.500,365.500 129.425,365.500 129.333 C 365.500 129.242,365.758 129.167,366.073 129.167 C 366.389 129.167,366.693 129.092,366.750 129.000 C 366.807 128.908,367.074 128.833,367.343 128.833 C 367.613 128.833,367.833 128.758,367.833 128.667 C 367.833 128.575,368.058 128.500,368.333 128.500 C 368.608 128.500,368.833 128.425,368.833 128.333 C 368.833 128.242,369.058 128.167,369.333 128.167 C 369.608 128.167,369.833 128.092,369.833 128.000 C 369.833 127.908,369.947 127.833,370.086 127.833 C 370.224 127.833,370.468 127.767,370.627 127.686 C 370.786 127.605,371.104 127.466,371.333 127.376 C 371.563 127.287,372.076 127.053,372.474 126.857 C 372.872 126.661,373.341 126.500,373.516 126.500 C 373.690 126.500,373.833 126.425,373.833 126.333 C 373.833 126.242,373.983 126.167,374.167 126.167 C 374.350 126.167,374.500 126.092,374.500 126.000 C 374.500 125.908,374.650 125.833,374.833 125.833 C 375.017 125.833,375.167 125.758,375.167 125.667 C 375.167 125.575,375.310 125.500,375.486 125.500 C 375.662 125.500,375.831 125.444,375.861 125.375 C 375.931 125.219,376.818 124.677,377.208 124.554 C 377.369 124.503,377.500 124.395,377.500 124.314 C 377.500 124.233,377.650 124.167,377.833 124.167 C 378.017 124.167,378.167 124.104,378.167 124.028 C 378.167 123.952,378.373 123.783,378.625 123.653 C 378.877 123.523,379.229 123.285,379.406 123.125 C 379.584 122.965,379.828 122.833,379.948 122.833 C 380.068 122.833,380.167 122.758,380.167 122.667 C 380.167 122.575,380.244 122.500,380.338 122.500 C 380.496 122.500,382.642 120.919,382.833 120.662 C 382.879 120.600,383.012 120.519,383.129 120.482 C 383.770 120.277,390.250 113.783,390.484 113.111 C 390.522 113.004,390.690 112.795,390.859 112.647 C 391.028 112.499,391.167 112.304,391.167 112.214 C 391.167 112.123,391.392 111.814,391.667 111.526 C 391.942 111.238,392.167 110.890,392.167 110.752 C 392.167 110.613,392.225 110.500,392.297 110.500 C 392.369 110.500,392.559 110.278,392.720 110.006 C 392.880 109.734,393.103 109.413,393.214 109.293 C 393.495 108.988,394.002 108.142,394.113 107.792 C 394.164 107.631,394.272 107.500,394.353 107.500 C 394.434 107.500,394.500 107.356,394.500 107.181 C 394.500 107.005,394.556 106.836,394.625 106.806 C 394.801 106.727,395.833 104.667,395.833 104.393 C 395.833 104.269,395.890 104.166,395.958 104.165 C 396.108 104.164,396.500 103.357,396.500 103.050 C 396.500 102.931,396.575 102.833,396.667 102.833 C 396.758 102.833,396.833 102.650,396.833 102.427 C 396.833 102.203,396.908 101.973,397.000 101.917 C 397.092 101.860,397.167 101.668,397.167 101.490 C 397.167 101.312,397.242 101.167,397.333 101.167 C 397.425 101.167,397.500 100.942,397.500 100.667 C 397.500 100.392,397.575 100.167,397.667 100.167 C 397.758 100.167,397.833 100.021,397.833 99.843 C 397.833 99.665,397.908 99.473,398.000 99.417 C 398.092 99.360,398.167 99.056,398.167 98.740 C 398.167 98.425,398.242 98.167,398.333 98.167 C 398.425 98.167,398.500 97.942,398.500 97.667 C 398.500 97.392,398.575 97.167,398.667 97.167 C 398.758 97.167,398.833 96.867,398.833 96.500 C 398.833 96.133,398.908 95.833,399.000 95.833 C 399.092 95.833,399.167 95.500,399.167 95.093 C 399.167 94.686,399.242 94.307,399.333 94.250 C 399.425 94.193,399.500 93.866,399.500 93.523 C 399.500 93.181,399.591 92.809,399.701 92.699 C 399.984 92.416,400.098 80.981,399.839 78.917 C 399.735 78.092,399.609 77.042,399.560 76.583 C 399.510 76.125,399.401 75.679,399.318 75.592 C 399.235 75.505,399.167 75.148,399.167 74.800 C 399.167 74.452,399.092 74.167,399.000 74.167 C 398.908 74.167,398.833 73.909,398.833 73.593 C 398.833 73.278,398.758 72.973,398.667 72.917 C 398.575 72.860,398.500 72.635,398.500 72.417 C 398.500 72.198,398.425 71.973,398.333 71.917 C 398.242 71.860,398.167 71.630,398.167 71.405 C 398.167 71.180,398.092 70.846,398.000 70.664 C 397.908 70.482,397.758 70.184,397.667 70.002 C 397.575 69.820,397.500 69.557,397.500 69.417 C 397.500 69.277,397.434 69.032,397.354 68.873 C 396.702 67.579,396.500 67.092,396.500 66.818 C 396.500 66.643,396.444 66.499,396.375 66.499 C 396.225 66.497,395.833 65.690,395.833 65.383 C 395.833 65.264,395.758 65.167,395.667 65.167 C 395.575 65.167,395.500 65.017,395.500 64.833 C 395.500 64.650,395.444 64.499,395.375 64.499 C 395.225 64.497,394.833 63.690,394.833 63.383 C 394.833 63.264,394.758 63.167,394.667 63.167 C 394.575 63.167,394.500 63.088,394.500 62.991 C 394.500 62.894,394.200 62.373,393.833 61.833 C 393.467 61.293,393.167 60.773,393.167 60.676 C 393.167 60.579,393.092 60.500,393.000 60.500 C 392.908 60.500,392.833 60.402,392.833 60.281 C 392.833 60.161,392.683 59.902,392.500 59.705 C 392.317 59.508,392.167 59.304,392.167 59.252 C 392.167 59.155,390.525 56.985,390.337 56.833 C 390.280 56.788,390.053 56.487,389.831 56.167 C 389.336 55.448,383.706 49.833,383.482 49.833 C 383.392 49.833,383.154 49.676,382.951 49.483 C 382.749 49.291,382.133 48.828,381.583 48.454 C 381.033 48.080,380.462 47.637,380.314 47.470 C 380.166 47.303,379.922 47.167,379.772 47.167 C 379.622 47.167,379.500 47.104,379.500 47.028 C 379.500 46.952,379.294 46.783,379.042 46.653 C 378.790 46.523,378.438 46.285,378.260 46.125 C 378.083 45.965,377.839 45.833,377.719 45.833 C 377.598 45.833,377.500 45.758,377.500 45.667 C 377.500 45.575,377.356 45.500,377.181 45.500 C 377.005 45.500,376.836 45.444,376.806 45.375 C 376.748 45.245,375.948 44.800,374.250 43.954 C 373.311 43.486,372.959 43.331,372.042 42.978 C 371.313 42.697,370.747 42.459,370.461 42.314 C 370.301 42.233,370.020 42.167,369.836 42.167 C 369.651 42.167,369.500 42.092,369.500 42.000 C 369.500 41.908,369.354 41.833,369.177 41.833 C 368.999 41.833,368.807 41.758,368.750 41.667 C 368.693 41.575,368.431 41.500,368.167 41.500 C 367.902 41.500,367.640 41.425,367.583 41.333 C 367.527 41.242,367.260 41.167,366.990 41.167 C 366.721 41.167,366.500 41.092,366.500 41.000 C 366.500 40.908,366.242 40.833,365.927 40.833 C 365.611 40.833,365.312 40.766,365.261 40.684 C 365.174 40.544,364.875 40.481,363.125 40.233 C 362.735 40.178,362.345 40.065,362.258 39.983 C 362.171 39.901,361.707 39.833,361.227 39.833 C 360.746 39.833,360.307 39.758,360.250 39.667 C 360.193 39.575,359.476 39.500,358.657 39.500 C 357.774 39.500,357.167 39.432,357.167 39.333 C 357.167 39.113,349.841 39.113,349.500 39.333 M263.583 62.333 C 263.640 62.425,264.019 62.500,264.427 62.500 C 264.834 62.500,265.167 62.575,265.167 62.667 C 265.167 62.758,265.387 62.833,265.657 62.833 C 265.926 62.833,266.193 62.908,266.250 63.000 C 266.307 63.092,266.537 63.167,266.762 63.167 C 266.987 63.167,267.301 63.237,267.461 63.322 C 267.620 63.408,267.994 63.576,268.292 63.696 C 268.590 63.816,268.833 63.971,268.833 64.041 C 268.833 64.110,268.983 64.167,269.167 64.167 C 269.350 64.167,269.500 64.242,269.500 64.333 C 269.500 64.425,269.631 64.502,269.792 64.504 C 269.952 64.506,270.271 64.654,270.500 64.833 C 270.729 65.013,270.980 65.161,271.057 65.163 C 271.276 65.169,273.500 66.862,273.500 67.023 C 273.500 67.102,273.610 67.167,273.744 67.167 C 273.878 67.167,274.069 67.317,274.167 67.500 C 274.265 67.683,274.414 67.833,274.498 67.833 C 274.660 67.833,275.500 68.619,275.500 68.770 C 275.500 68.819,275.726 69.085,276.003 69.362 C 276.279 69.638,276.745 70.213,277.037 70.640 C 277.330 71.067,277.704 71.562,277.868 71.740 C 278.032 71.917,278.167 72.161,278.167 72.281 C 278.167 72.402,278.223 72.501,278.292 72.501 C 278.441 72.503,278.833 73.310,278.833 73.617 C 278.833 73.736,278.890 73.834,278.958 73.835 C 279.108 73.836,279.500 74.643,279.500 74.950 C 279.500 75.069,279.575 75.167,279.667 75.167 C 279.758 75.167,279.833 75.392,279.833 75.667 C 279.833 75.942,279.908 76.167,280.000 76.167 C 280.092 76.167,280.167 76.392,280.167 76.667 C 280.167 76.942,280.242 77.167,280.333 77.167 C 280.425 77.167,280.500 77.425,280.500 77.740 C 280.500 78.056,280.575 78.360,280.667 78.417 C 280.758 78.473,280.833 78.923,280.833 79.417 C 280.833 79.910,280.908 80.360,281.000 80.417 C 281.099 80.478,281.167 81.526,281.167 83.000 C 281.167 84.474,281.099 85.522,281.000 85.583 C 280.908 85.640,280.833 86.052,280.833 86.500 C 280.833 86.948,280.758 87.360,280.667 87.417 C 280.575 87.473,280.500 87.736,280.500 88.000 C 280.500 88.264,280.425 88.527,280.333 88.583 C 280.242 88.640,280.167 88.865,280.167 89.083 C 280.167 89.302,280.092 89.527,280.000 89.583 C 279.908 89.640,279.833 89.869,279.833 90.093 C 279.833 90.317,279.758 90.500,279.667 90.500 C 279.575 90.500,279.500 90.614,279.500 90.752 C 279.500 90.992,279.430 91.163,278.971 92.042 C 278.863 92.248,278.619 92.717,278.429 93.083 C 278.239 93.450,277.952 93.895,277.792 94.073 C 277.631 94.251,277.500 94.458,277.500 94.533 C 277.500 94.608,277.275 94.905,277.000 95.193 C 276.725 95.481,276.500 95.789,276.500 95.878 C 276.500 96.446,271.342 100.833,270.674 100.833 C 270.578 100.833,270.500 100.908,270.500 101.000 C 270.500 101.092,270.350 101.167,270.167 101.167 C 269.983 101.167,269.833 101.223,269.832 101.292 C 269.830 101.441,269.023 101.833,268.717 101.833 C 268.598 101.833,268.500 101.908,268.500 102.000 C 268.500 102.092,268.354 102.167,268.177 102.167 C 267.999 102.167,267.807 102.242,267.750 102.333 C 267.693 102.425,267.464 102.500,267.240 102.500 C 267.016 102.500,266.833 102.566,266.833 102.648 C 266.833 102.729,266.627 102.837,266.375 102.887 C 266.123 102.938,265.579 103.067,265.167 103.174 C 264.754 103.280,264.004 103.404,263.500 103.448 C 262.996 103.493,262.512 103.598,262.425 103.681 C 262.207 103.891,257.714 103.877,257.583 103.667 C 257.527 103.575,257.077 103.500,256.583 103.500 C 256.090 103.500,255.645 103.433,255.594 103.351 C 255.544 103.269,255.220 103.161,254.876 103.110 C 253.692 102.937,253.167 102.795,253.167 102.648 C 253.167 102.566,252.984 102.500,252.760 102.500 C 252.536 102.500,252.307 102.425,252.250 102.333 C 252.193 102.242,252.001 102.167,251.823 102.167 C 251.646 102.167,251.500 102.092,251.500 102.000 C 251.500 101.908,251.395 101.833,251.267 101.833 C 250.102 101.833,243.500 96.764,243.500 95.869 C 243.500 95.785,243.294 95.497,243.042 95.230 C 242.790 94.963,242.477 94.539,242.347 94.289 C 242.217 94.038,242.048 93.833,241.972 93.833 C 241.896 93.833,241.833 93.683,241.833 93.500 C 241.833 93.317,241.770 93.167,241.693 93.167 C 241.616 93.167,241.382 92.810,241.175 92.375 C 240.967 91.940,240.730 91.453,240.648 91.294 C 240.567 91.135,240.500 90.891,240.500 90.752 C 240.500 90.614,240.425 90.500,240.333 90.500 C 240.242 90.500,240.167 90.354,240.167 90.177 C 240.167 89.999,240.092 89.807,240.000 89.750 C 239.908 89.693,239.833 89.431,239.833 89.167 C 239.833 88.902,239.758 88.640,239.667 88.583 C 239.575 88.527,239.500 88.275,239.500 88.023 C 239.500 87.772,239.432 87.495,239.349 87.408 C 238.985 87.024,238.662 80.604,238.992 80.275 C 239.088 80.179,239.167 79.744,239.167 79.310 C 239.167 78.875,239.242 78.473,239.333 78.417 C 239.425 78.360,239.500 78.056,239.500 77.740 C 239.500 77.425,239.575 77.167,239.667 77.167 C 239.758 77.167,239.833 76.942,239.833 76.667 C 239.833 76.392,239.908 76.167,240.000 76.167 C 240.092 76.167,240.167 75.984,240.167 75.760 C 240.167 75.536,240.242 75.307,240.333 75.250 C 240.425 75.193,240.500 75.001,240.500 74.823 C 240.500 74.646,240.575 74.500,240.667 74.500 C 240.758 74.500,240.833 74.350,240.833 74.167 C 240.833 73.983,240.908 73.833,241.000 73.833 C 241.092 73.833,241.167 73.736,241.167 73.617 C 241.167 73.310,241.559 72.503,241.708 72.501 C 241.777 72.501,241.833 72.416,241.833 72.314 C 241.833 71.594,245.710 67.386,247.500 66.164 C 247.821 65.945,248.121 65.725,248.167 65.675 C 248.314 65.513,249.240 64.982,249.542 64.887 C 249.702 64.836,249.833 64.728,249.833 64.647 C 249.833 64.566,249.983 64.500,250.167 64.500 C 250.350 64.500,250.500 64.425,250.500 64.333 C 250.500 64.242,250.650 64.167,250.833 64.167 C 251.017 64.167,251.167 64.110,251.168 64.042 C 251.170 63.875,251.992 63.500,252.357 63.500 C 252.516 63.500,252.693 63.425,252.750 63.333 C 252.807 63.242,253.032 63.167,253.250 63.167 C 253.468 63.167,253.693 63.092,253.750 63.000 C 253.807 62.908,254.074 62.833,254.343 62.833 C 254.613 62.833,254.833 62.758,254.833 62.667 C 254.833 62.575,255.166 62.500,255.573 62.500 C 255.981 62.500,256.360 62.425,256.417 62.333 C 256.480 62.231,257.860 62.167,260.000 62.167 C 262.140 62.167,263.520 62.231,263.583 62.333 M355.917 65.093 C 356.558 65.148,357.155 65.263,357.242 65.347 C 357.329 65.431,357.643 65.500,357.940 65.500 C 358.237 65.500,358.527 65.575,358.583 65.667 C 358.640 65.758,358.902 65.833,359.167 65.833 C 359.431 65.833,359.693 65.908,359.750 66.000 C 359.807 66.092,360.032 66.167,360.250 66.167 C 360.468 66.167,360.693 66.242,360.750 66.333 C 360.807 66.425,360.999 66.500,361.177 66.500 C 361.354 66.500,361.500 66.575,361.500 66.667 C 361.500 66.758,361.598 66.833,361.717 66.833 C 362.023 66.833,362.830 67.225,362.832 67.375 C 362.833 67.444,362.983 67.500,363.167 67.500 C 363.350 67.500,363.500 67.575,363.500 67.667 C 363.500 67.758,363.650 67.833,363.833 67.833 C 364.017 67.833,364.167 67.896,364.167 67.972 C 364.167 68.048,364.373 68.216,364.625 68.346 C 364.877 68.475,365.205 68.713,365.353 68.874 C 365.501 69.035,365.705 69.167,365.807 69.167 C 366.020 69.167,369.833 72.900,369.834 73.110 C 369.834 73.187,370.059 73.512,370.333 73.833 C 370.608 74.154,370.833 74.510,370.833 74.625 C 370.833 74.740,370.908 74.833,371.000 74.833 C 371.092 74.833,371.167 74.977,371.167 75.153 C 371.167 75.328,371.223 75.497,371.292 75.528 C 371.472 75.608,372.167 76.988,372.167 77.266 C 372.167 77.395,372.242 77.500,372.333 77.500 C 372.425 77.500,372.500 77.646,372.500 77.823 C 372.500 78.001,372.575 78.193,372.667 78.250 C 372.758 78.307,372.833 78.532,372.833 78.750 C 372.833 78.968,372.908 79.193,373.000 79.250 C 373.092 79.307,373.167 79.611,373.167 79.927 C 373.167 80.242,373.242 80.500,373.333 80.500 C 373.425 80.500,373.500 80.875,373.500 81.333 C 373.500 81.792,373.575 82.167,373.667 82.167 C 373.771 82.167,373.833 83.191,373.833 84.907 C 373.833 86.554,373.767 87.688,373.667 87.750 C 373.575 87.807,373.500 88.224,373.500 88.677 C 373.500 89.129,373.425 89.500,373.333 89.500 C 373.242 89.500,373.167 89.721,373.167 89.990 C 373.167 90.260,373.092 90.527,373.000 90.583 C 372.908 90.640,372.833 90.902,372.833 91.167 C 372.833 91.431,372.758 91.693,372.667 91.750 C 372.575 91.807,372.500 91.999,372.500 92.177 C 372.500 92.354,372.425 92.500,372.333 92.500 C 372.242 92.500,372.165 92.669,372.163 92.875 C 372.161 93.081,372.013 93.438,371.833 93.667 C 371.654 93.896,371.506 94.177,371.504 94.292 C 371.502 94.406,371.425 94.500,371.333 94.500 C 371.242 94.500,371.167 94.650,371.167 94.833 C 371.167 95.017,371.092 95.167,371.000 95.167 C 370.908 95.167,370.833 95.265,370.833 95.385 C 370.833 95.505,370.700 95.749,370.537 95.927 C 370.374 96.105,370.060 96.513,369.839 96.833 C 369.360 97.531,366.039 100.833,365.818 100.833 C 365.733 100.833,365.428 101.058,365.140 101.333 C 364.853 101.608,364.516 101.833,364.392 101.833 C 364.268 101.833,364.167 101.908,364.167 102.000 C 364.167 102.092,364.023 102.167,363.847 102.167 C 363.672 102.167,363.503 102.223,363.472 102.292 C 363.442 102.362,362.892 102.669,362.250 102.977 C 361.608 103.284,360.953 103.602,360.794 103.684 C 360.635 103.766,360.354 103.833,360.169 103.833 C 359.984 103.833,359.833 103.908,359.833 104.000 C 359.833 104.092,359.608 104.167,359.333 104.167 C 359.058 104.167,358.833 104.242,358.833 104.333 C 358.833 104.425,358.511 104.500,358.117 104.500 C 357.723 104.500,357.329 104.568,357.242 104.652 C 356.902 104.978,351.566 105.299,351.277 105.011 C 351.180 104.913,350.665 104.833,350.133 104.833 C 349.600 104.833,349.167 104.759,349.167 104.667 C 349.167 104.575,348.867 104.500,348.500 104.500 C 348.133 104.500,347.833 104.425,347.833 104.333 C 347.833 104.242,347.575 104.167,347.260 104.167 C 346.944 104.167,346.640 104.092,346.583 104.000 C 346.527 103.908,346.335 103.833,346.157 103.833 C 345.979 103.833,345.833 103.758,345.833 103.667 C 345.833 103.575,345.690 103.500,345.516 103.500 C 345.341 103.500,344.891 103.336,344.516 103.136 L 343.833 102.771 343.833 88.419 C 343.833 80.106,343.897 74.000,343.984 73.908 C 344.067 73.821,344.174 73.412,344.223 73.000 C 344.364 71.809,344.526 71.167,344.686 71.167 C 344.767 71.167,344.833 70.942,344.833 70.667 C 344.833 70.392,344.908 70.167,345.000 70.167 C 345.092 70.167,345.167 70.017,345.167 69.833 C 345.167 69.650,345.229 69.500,345.305 69.500 C 345.381 69.500,345.548 69.294,345.676 69.042 C 345.971 68.458,347.775 66.658,348.376 66.347 C 348.628 66.217,348.833 66.048,348.833 65.972 C 348.833 65.896,348.947 65.833,349.086 65.833 C 349.224 65.833,349.487 65.758,349.669 65.667 C 349.851 65.575,350.149 65.425,350.331 65.333 C 350.513 65.242,350.959 65.167,351.321 65.167 C 351.684 65.167,352.030 65.086,352.091 64.988 C 352.198 64.814,352.916 64.834,355.917 65.093 " stroke="none" fill="#143364" fill-rule="evenodd"></path><path id="path1" d="M17.583 86.667 C 17.527 86.758,17.035 86.833,16.490 86.833 C 15.941 86.833,15.500 86.908,15.500 87.000 C 15.500 87.092,15.242 87.167,14.927 87.167 C 14.611 87.167,14.307 87.242,14.250 87.333 C 14.193 87.425,13.926 87.500,13.657 87.500 C 13.387 87.500,13.167 87.575,13.167 87.667 C 13.167 87.758,12.984 87.833,12.760 87.833 C 12.536 87.833,12.307 87.908,12.250 88.000 C 12.193 88.092,12.001 88.167,11.823 88.167 C 11.646 88.167,11.500 88.242,11.500 88.333 C 11.500 88.425,11.350 88.500,11.167 88.500 C 10.983 88.500,10.833 88.575,10.833 88.667 C 10.833 88.758,10.683 88.833,10.500 88.833 C 10.317 88.833,10.167 88.908,10.167 89.000 C 10.167 89.092,10.017 89.167,9.833 89.167 C 9.650 89.167,9.500 89.229,9.500 89.305 C 9.500 89.381,9.294 89.550,9.042 89.680 C 8.790 89.810,8.438 90.048,8.260 90.208 C 8.083 90.369,7.874 90.500,7.796 90.500 C 7.719 90.500,7.400 90.756,7.087 91.068 C 6.775 91.381,6.308 91.762,6.051 91.916 C 5.794 92.069,5.338 92.516,5.039 92.908 C 4.740 93.301,4.290 93.840,4.039 94.106 C 3.788 94.372,3.477 94.794,3.347 95.045 C 3.217 95.295,3.048 95.500,2.972 95.500 C 2.896 95.500,2.833 95.598,2.833 95.719 C 2.833 95.839,2.683 96.098,2.500 96.295 C 2.317 96.492,2.167 96.768,2.167 96.910 C 2.167 97.051,2.092 97.167,2.000 97.167 C 1.908 97.167,1.833 97.317,1.833 97.500 C 1.833 97.683,1.758 97.833,1.667 97.833 C 1.575 97.833,1.500 97.983,1.500 98.167 C 1.500 98.350,1.425 98.500,1.333 98.500 C 1.242 98.500,1.167 98.651,1.167 98.836 C 1.167 99.020,1.092 99.320,1.000 99.502 C 0.908 99.684,0.758 99.982,0.667 100.164 C 0.575 100.346,0.500 100.715,0.500 100.984 C 0.500 101.252,0.406 101.503,0.292 101.542 C -0.011 101.643,-0.011 111.691,0.292 111.792 C 0.406 111.830,0.500 112.075,0.500 112.337 C 0.500 112.599,0.575 112.860,0.667 112.917 C 0.758 112.973,0.833 113.203,0.833 113.427 C 0.833 113.650,0.908 113.833,1.000 113.833 C 1.092 113.833,1.167 113.981,1.167 114.162 C 1.167 114.342,1.317 114.757,1.500 115.083 C 1.683 115.410,1.833 115.787,1.833 115.922 C 1.833 116.056,1.908 116.167,2.000 116.167 C 2.092 116.167,2.167 116.265,2.167 116.385 C 2.167 116.505,2.317 116.765,2.500 116.962 C 2.683 117.158,2.833 117.398,2.833 117.495 C 2.833 117.591,3.058 117.905,3.333 118.193 C 3.608 118.481,3.833 118.781,3.833 118.860 C 3.833 119.064,7.294 122.500,7.500 122.500 C 7.593 122.500,7.905 122.725,8.193 123.000 C 8.481 123.275,8.817 123.500,8.941 123.500 C 9.065 123.500,9.167 123.575,9.167 123.667 C 9.167 123.758,9.282 123.833,9.424 123.833 C 9.565 123.833,9.842 123.983,10.038 124.167 C 10.235 124.350,10.492 124.500,10.610 124.500 C 10.727 124.500,11.090 124.650,11.417 124.833 C 11.743 125.017,12.120 125.167,12.255 125.167 C 12.390 125.167,12.500 125.242,12.500 125.333 C 12.500 125.425,12.725 125.500,13.000 125.500 C 13.275 125.500,13.500 125.575,13.500 125.667 C 13.500 125.758,13.721 125.833,13.990 125.833 C 14.260 125.833,14.527 125.908,14.583 126.000 C 14.640 126.092,14.977 126.167,15.333 126.167 C 15.689 126.167,16.027 126.242,16.083 126.333 C 16.140 126.425,16.852 126.500,17.667 126.500 C 18.481 126.500,19.193 126.575,19.250 126.667 C 19.307 126.758,19.644 126.833,20.000 126.833 C 20.356 126.833,20.693 126.758,20.750 126.667 C 20.807 126.575,21.519 126.500,22.333 126.500 C 23.148 126.500,23.860 126.425,23.917 126.333 C 23.973 126.242,24.311 126.167,24.667 126.167 C 25.023 126.167,25.360 126.092,25.417 126.000 C 25.473 125.908,25.740 125.833,26.010 125.833 C 26.279 125.833,26.500 125.758,26.500 125.667 C 26.500 125.575,26.725 125.500,27.000 125.500 C 27.275 125.500,27.500 125.425,27.500 125.333 C 27.500 125.242,27.614 125.167,27.752 125.167 C 27.891 125.167,28.135 125.100,28.294 125.018 C 28.453 124.937,28.940 124.700,29.375 124.492 C 29.810 124.284,30.167 124.051,30.167 123.974 C 30.167 123.897,30.317 123.833,30.500 123.833 C 30.683 123.833,30.833 123.758,30.833 123.667 C 30.833 123.575,30.927 123.500,31.042 123.500 C 31.156 123.499,31.512 123.275,31.833 123.000 C 32.154 122.725,32.477 122.501,32.550 122.500 C 32.765 122.500,36.500 118.663,36.500 118.442 C 36.500 118.331,36.650 118.132,36.833 118.000 C 37.017 117.868,37.167 117.626,37.167 117.463 C 37.167 117.300,37.242 117.167,37.333 117.167 C 37.425 117.167,37.500 117.068,37.500 116.948 C 37.500 116.828,37.650 116.569,37.833 116.372 C 38.017 116.175,38.167 115.898,38.167 115.757 C 38.167 115.616,38.242 115.500,38.333 115.500 C 38.425 115.500,38.500 115.354,38.500 115.177 C 38.500 114.999,38.575 114.807,38.667 114.750 C 38.758 114.693,38.833 114.464,38.833 114.240 C 38.833 114.016,38.908 113.833,39.000 113.833 C 39.092 113.833,39.167 113.650,39.167 113.427 C 39.167 113.203,39.242 112.973,39.333 112.917 C 39.425 112.860,39.500 112.593,39.500 112.323 C 39.500 112.054,39.575 111.833,39.667 111.833 C 39.758 111.833,39.833 111.538,39.833 111.177 C 39.833 110.815,39.908 110.473,40.000 110.417 C 40.103 110.353,40.167 108.887,40.167 106.573 C 40.167 104.191,40.106 102.833,40.000 102.833 C 39.908 102.833,39.833 102.533,39.833 102.167 C 39.833 101.800,39.758 101.500,39.667 101.500 C 39.575 101.500,39.500 101.274,39.500 100.998 C 39.500 100.721,39.425 100.346,39.333 100.164 C 39.242 99.982,39.092 99.684,39.000 99.502 C 38.908 99.320,38.833 99.020,38.833 98.836 C 38.833 98.651,38.758 98.500,38.667 98.500 C 38.575 98.500,38.500 98.350,38.500 98.167 C 38.500 97.983,38.425 97.833,38.333 97.833 C 38.242 97.833,38.167 97.683,38.167 97.500 C 38.167 97.317,38.092 97.167,38.000 97.167 C 37.908 97.167,37.833 97.051,37.833 96.910 C 37.833 96.768,37.683 96.492,37.500 96.295 C 37.317 96.098,37.167 95.839,37.167 95.719 C 37.167 95.598,37.092 95.500,37.000 95.500 C 36.908 95.500,36.833 95.399,36.833 95.275 C 36.833 95.151,36.627 94.830,36.375 94.563 C 36.123 94.295,35.719 93.815,35.477 93.496 C 34.810 92.617,34.472 92.273,33.833 91.826 C 33.512 91.602,32.960 91.137,32.605 90.792 C 32.250 90.448,31.891 90.167,31.806 90.167 C 31.722 90.167,31.492 90.017,31.295 89.833 C 31.098 89.650,30.839 89.500,30.719 89.500 C 30.598 89.500,30.500 89.425,30.500 89.333 C 30.500 89.242,30.350 89.167,30.167 89.167 C 29.983 89.167,29.833 89.092,29.833 89.000 C 29.833 88.908,29.683 88.833,29.500 88.833 C 29.317 88.833,29.167 88.758,29.167 88.667 C 29.167 88.575,29.017 88.500,28.833 88.500 C 28.650 88.500,28.500 88.425,28.500 88.333 C 28.500 88.242,28.350 88.167,28.167 88.167 C 27.983 88.167,27.833 88.092,27.833 88.000 C 27.833 87.908,27.608 87.833,27.333 87.833 C 27.058 87.833,26.833 87.758,26.833 87.667 C 26.833 87.575,26.608 87.500,26.333 87.500 C 26.058 87.500,25.833 87.425,25.833 87.333 C 25.833 87.242,25.533 87.167,25.167 87.167 C 24.800 87.167,24.500 87.092,24.500 87.000 C 24.500 86.908,24.059 86.833,23.510 86.833 C 22.965 86.833,22.473 86.758,22.417 86.667 C 22.356 86.569,21.363 86.500,20.000 86.500 C 18.637 86.500,17.644 86.569,17.583 86.667 " stroke="none" fill="#fc5c1b" fill-rule="evenodd"></path><path id="path2" d="" stroke="none" fill="#144468" fill-rule="evenodd"></path><path id="path3" d="M131.372 4.500 C 131.258 4.683,131.221 4.833,131.292 4.833 C 131.362 4.833,131.513 4.683,131.628 4.500 C 131.742 4.317,131.779 4.167,131.708 4.167 C 131.638 4.167,131.487 4.317,131.372 4.500 M57.598 43.918 C 57.331 44.147,57.149 44.371,57.194 44.416 C 57.238 44.460,57.489 44.272,57.752 43.998 C 58.333 43.391,58.257 43.351,57.598 43.918 M191.690 44.809 C 191.796 44.978,192.040 45.213,192.233 45.330 C 192.478 45.478,192.437 45.386,192.094 45.021 C 191.537 44.428,191.411 44.362,191.690 44.809 M226.906 48.042 L 226.417 48.583 226.958 48.094 C 227.463 47.638,227.577 47.500,227.448 47.500 C 227.419 47.500,227.175 47.744,226.906 48.042 M294.248 49.332 C 294.511 49.606,294.758 49.798,294.797 49.758 C 294.884 49.671,294.065 48.833,293.893 48.833 C 293.826 48.833,293.986 49.058,294.248 49.332 M204.248 101.667 C 204.248 113.996,204.267 119.040,204.292 112.875 C 204.316 106.710,204.316 96.623,204.292 90.458 C 204.267 84.294,204.248 89.337,204.248 101.667 M56.583 86.333 C 57.035 86.792,57.442 87.167,57.487 87.167 C 57.533 87.167,57.201 86.792,56.750 86.333 C 56.299 85.875,55.892 85.500,55.846 85.500 C 55.800 85.500,56.132 85.875,56.583 86.333 M60.429 100.762 C 60.252 100.891,60.140 101.029,60.179 101.068 C 60.218 101.107,60.395 101.034,60.571 100.905 C 60.748 100.776,60.860 100.638,60.821 100.599 C 60.782 100.559,60.605 100.633,60.429 100.762 M222.834 113.583 C 223.063 113.858,223.269 114.115,223.292 114.153 C 223.315 114.191,223.370 114.186,223.415 114.141 C 223.460 114.096,223.254 113.840,222.957 113.571 L 222.418 113.083 222.834 113.583 M48.834 115.250 C 49.063 115.525,49.269 115.781,49.292 115.819 C 49.315 115.858,49.370 115.852,49.415 115.807 C 49.460 115.762,49.254 115.506,48.957 115.238 L 48.418 114.750 48.834 115.250 M386.418 117.499 C 386.251 117.683,386.169 117.833,386.236 117.833 C 386.412 117.833,386.887 117.331,386.797 117.241 C 386.755 117.199,386.584 117.315,386.418 117.499 M109.705 119.167 C 109.591 119.350,109.555 119.500,109.625 119.500 C 109.696 119.500,109.847 119.350,109.961 119.167 C 110.076 118.983,110.112 118.833,110.042 118.833 C 109.971 118.833,109.820 118.983,109.705 119.167 M136.470 126.792 C 139.342 126.817,143.992 126.817,146.804 126.792 C 149.616 126.766,147.267 126.745,141.583 126.745 C 135.900 126.745,133.599 126.766,136.470 126.792 M186.208 126.792 C 189.027 126.817,193.640 126.817,196.458 126.792 C 199.277 126.766,196.971 126.745,191.333 126.745 C 185.696 126.745,183.390 126.766,186.208 126.792 " stroke="none" fill="#50443c" fill-rule="evenodd"></path><path id="path4" d="" stroke="none" fill="#144468" fill-rule="evenodd"></path></g></svg>